Coordinates
version=1
nRows=17
nColumns=24
inDegrees=yes

Units are S.I. units (second, meters, Newtons, ...)
Angles are in degrees.

endheader
time	pelvis_tilt	pelvis_list	pelvis_rotation	pelvis_tx	pelvis_ty	pelvis_tz	hip_flexion_r	hip_adduction_r	hip_rotation_r	knee_angle_r	ankle_angle_r	subtalar_angle_r	mtp_angle_r	hip_flexion_l	hip_adduction_l	hip_rotation_l	knee_angle_l	ankle_angle_l	subtalar_angle_l	mtp_angle_l	lumbar_extension	lumbar_bending	lumbar_rotation
      1.62500000	      3.09060367	      5.10720049	     -3.74185142	      0.46421056	      1.08163004	      0.33514181	     10.42171387	     -7.27294560	      0.86426772	    -60.43241433	     -4.70764389	    -13.02575134	      9.04658588	      1.30971675	     11.36497266	     -2.30586993	     -2.01444976	     -6.77934641	    -13.57127320	     -0.31008217	      3.57797101	     -2.20924067	      2.53749131
      1.62916667	      3.13800034	      5.16640779	     -3.66245392	      0.46875625	      1.08206016	      0.33501419	     10.93505316	     -7.26883601	      1.06688789	    -60.24409243	     -4.26213541	    -13.09002689	      8.99032812	      0.89754294	     11.45364315	     -2.25456516	     -1.84492159	     -6.65537247	    -13.38232428	     -0.37283781	      3.48467308	     -2.28408783	      2.39681543
      1.63333333	      3.15018535	      5.19042846	     -3.55587773	      0.47333786	      1.08246090	      0.33498311	     11.45477291	     -7.20921776	      1.26257066	    -59.97373472	     -3.98852610	    -13.14467302	      8.96380349	      0.51686993	     11.48601103	     -2.19083944	     -1.68278700	     -6.58570042	    -13.27631623	     -0.40159423	      3.39816294	     -2.34072656	      2.32517965
      1.63750000	      3.22019018	      5.28700758	     -3.46810915	      0.47777774	      1.08284672	      0.33475534	     11.94332411	     -7.26143158	      1.42679329	    -59.75564345	     -3.33525826	    -13.25081151	      8.90122664	      0.09478747	     11.62905719	     -2.18993744	     -1.52711843	     -6.40220260	    -13.08072258	     -0.47148392	      3.32921774	     -2.47400142	      2.16274879
      1.64166667	      3.24370327	      5.34398686	     -3.38391008	      0.48230439	      1.08319950	      0.33466807	     12.45190209	     -7.24578066	      1.62251575	    -59.44689172	     -2.91553815	    -13.26659044	      8.83899276	     -0.29980869	     11.70918587	     -2.14170427	     -1.34150285	     -6.28061734	    -12.88142783	     -0.54051796	      3.25785024	     -2.55195394	      2.00843225
      1.64583333	      3.25825154	      5.37949714	     -3.25113040	      0.48683426	      1.08354600	      0.33461685	     12.93994021	     -7.20315449	      1.76824773	    -59.09274546	     -2.37778092	    -13.25438254	      8.73326060	     -0.67121198	     11.75670126	     -2.17987425	     -1.20089757	     -6.09881637	    -12.65816594	     -0.65911127	      3.19052394	     -2.68085440	      1.78866130
      1.65000000	      3.26061137	      5.42820088	     -3.16479986	      0.49136044	      1.08383669	      0.33454031	     13.44909017	     -7.17662887	      1.96006975	    -58.69039336	     -2.21567589	    -13.28083556	      8.70793324	     -1.05312672	     11.82524734	     -2.08939646	     -1.00049770	     -6.06467857	    -12.56020798	     -0.68553061	      3.12582367	     -2.71803075	      1.73438779
      1.65416667	      3.28274706	      5.49548874	     -3.06096008	      0.49584147	      1.08411907	      0.33443649	     13.92815223	     -7.17726713	      2.11166549	    -58.29196662	     -1.61699565	    -13.32511076	      8.61267009	     -1.44136409	     11.91815577	     -2.08884559	     -0.82754954	     -5.89362920	    -12.37800942	     -0.79157127	      3.08607303	     -2.85931899	      1.55091342
      1.65833333	      3.27485556	      5.54883875	     -2.97436905	      0.50033520	      1.08435271	      0.33437035	     14.42952979	     -7.15471519	      2.29587529	    -57.81522331	     -1.45638493	    -13.34056812	      8.58661152	     -1.81243112	     11.99001991	     -2.00751863	     -0.61936638	     -5.85964711	    -12.28500444	     -0.81881637	      3.03049032	     -2.90217077	      1.49779443
      1.66250000	      3.25688529	      5.62615546	     -2.87618413	      0.50478224	      1.08452002	      0.33426287	     14.94000226	     -7.16610278	      2.45540620	    -57.35868841	     -0.85026075	    -13.15016815	      8.32991190	     -2.15415787	     12.09387851	     -2.03044039	     -0.44773594	     -5.63813011	    -11.92429519	     -1.10583132	      3.01821940	     -3.01917084	      1.08574593
      1.66666667	      3.25090629	      5.66837539	     -2.77765044	      0.50931865	      1.08473613	      0.33423310	     15.40290013	     -7.12998550	      2.61372702	    -56.79753166	     -0.70332133	    -13.21168292	      8.30546394	     -2.53571448	     12.14876102	     -1.97204607	     -0.23606475	     -5.60871808	    -11.88045746	     -1.13094334	      2.98963214	     -3.11145887	      1.07304975
      1.67083333	      3.24138630	      5.72887025	     -2.70605742	      0.51379620	      1.08488275	      0.33419714	     15.87670871	     -7.11375107	      2.78636151	    -56.22451135	     -0.46069320	    -13.29134986	      8.27613069	     -2.91332637	     12.22860359	     -1.89394876	     -0.00820215	     -5.55849563	    -11.81854772	     -1.16150784	      2.96448158	     -3.19905188	      1.04284975
      1.67500000	      3.22570167	      5.78843081	     -2.62298468	      0.51829678	      1.08501581	      0.33414287	     16.33886520	     -7.09950818	      2.94218524	    -55.61753256	     -0.19922079	    -13.35781318	      8.24678427	     -3.28389012	     12.30773294	     -1.83885672	      0.20945582	     -5.49986957	    -11.75733569	     -1.19244262	      2.93913527	     -3.28532841	      1.00444701
      1.67916667	      3.20948186	      5.88093120	     -2.55743794	      0.52272901	      1.08507485	      0.33403071	     16.81306409	     -7.12916087	      3.09121895	    -55.02127266	      0.26317015	    -13.43074415	      8.17399797	     -3.64810617	     12.43275400	     -1.79083460	      0.43208763	     -5.37939394	    -11.64656785	     -1.27212259	      2.98791642	     -3.40273175	      0.89965996
      1.68333333	      3.16205391	      5.93042772	     -2.45295465	      0.52724495	      1.08512580	      0.33395977	     17.27881317	     -7.11031559	      3.19317737	    -54.33293660	      0.37736111	    -13.44025780	      8.15672388	     -3.98049807	     12.49710940	     -1.78764193	      0.64712069	     -5.34786002	    -11.60651734	     -1.28985025	      2.91477418	     -3.46324151	      0.87298449
      1.68750000	      3.14822170	      6.00547000	     -2.41109287	      0.53168026	      1.08515824	      0.33396598	     17.71933571	     -7.10480649	      3.38429551	    -53.63407999	      0.68565883	    -13.48332063	      8.10048741	     -4.35738347	     12.59239820	     -1.70078843	      0.88341040	     -5.25879093	    -11.48588549	     -1.34987801	      2.98183350	     -3.56936980	      0.78584822
      1.69166667	      3.09254789	      6.06227897	     -2.31595427	      0.53616116	      1.08513085	      0.33387788	     18.17629551	     -7.09708197	      3.47795776	    -52.88701138	      0.80513239	    -13.49928635	      8.08274702	     -4.67780939	     12.66647193	     -1.70613351	      1.09781529	     -5.22053678	    -11.44689211	     -1.36784598	      2.91066013	     -3.63847122	      0.75792974
